<?xml version="1.0" encoding="UTF-8"?>
<!DOCTYPE svg PUBLIC "-//W3C//DTD SVG 1.1//EN" "http://www.w3.org/Graphics/SVG/1.1/DTD/svg11.dtd">
<!-- Creator: CorelDRAW 2019 (64-Bit Evaluation Version) -->
<svg xmlns="http://www.w3.org/2000/svg" xml:space="preserve" width="65.5063mm" height="80.9736mm" version="1.1" style="shape-rendering:geometricPrecision; text-rendering:geometricPrecision; image-rendering:optimizeQuality; fill-rule:evenodd; clip-rule:evenodd"
viewBox="0 0 6550.62 8097.35"
 xmlns:xlink="http://www.w3.org/1999/xlink"
 xmlns:xodm="http://www.corel.com/coreldraw/odm/2003">
 <defs>
  <style type="text/css">
   <![CDATA[
    .fil2 {fill:#024669}
    .fil0 {fill:#00A0E3}
    .fil3 {fill:#00A0E3}
    .fil1 {fill:#00A0DA}
   ]]>
  </style>
 </defs>
 <g id="Layer_x0020_1">
  <metadata id="CorelCorpID_0Corel-Layer"/>
  <g id="_2023152658176">
   <path class="fil0" d="M37.47 2456.37c293.2,-491.82 967.68,-825.15 1842.42,-814.42l4086.26 50.16c403.4,1.17 435.74,84.94 321.77,-382.8 -145.69,-597.81 -997.71,-1283.54 -2005.48,-1278.82l-4193.96 -30.49 -51.01 2456.37z"/>
   <path class="fil1" d="M8.08 8097.35c1046.97,-0.37 2062.53,-697.4 2112.72,-1685.79l6.75 -3213.73c-405.35,-23.48 -2010.73,-36.13 -2066.5,1673.89 -14.87,455.81 -84.42,2934.42 -52.97,3225.63z"/>
   <path class="fil2" d="M2409.27 5727.97c2.17,1036.18 1702.54,1199.29 1816.08,1159.53l0.99 -3981c1092.2,2.69 2165.24,5.32 2201.16,5.32 73.81,0 84.02,-39.85 98.53,-84.88 14.52,-45.04 -73.82,-747.07 -89.79,-822.88 -15.97,-75.8 -103.87,-66.43 -103.87,-66.43 0,0 -3519.73,-29.52 -4517.76,-36.9 -998.02,-7.38 -1446.25,590.42 -1446.25,590.42 -278.07,298.91 -630.54,1656.87 -23.88,1022.16 606.67,-634.68 1556.44,-612.55 1556.44,-612.55l502.46 1.66 5.9 2825.56z"/>
   <path class="fil3" d="M4473.64 3178.54l25.69 2649.3c509.89,-34.7 1184.6,-552.29 1471.11,-903.68 207.25,-254.17 579.54,-845.91 580.17,-1668.85 0.03,-52.84 -51.1,-79.48 -98.8,-74.83l-1978.17 -1.94z"/>
  </g>
 </g>
</svg>
